<svg xmlns="http://www.w3.org/2000/svg" viewBox="0 0 1347 1347"><defs><linearGradient id="g" x1="0%" y1="100%" x2="100%" y2="0%"><stop offset="0%" stop-color="#F1735A"/><stop offset="55%" stop-color="#F58A5E"/><stop offset="100%" stop-color="#F8A862"/></linearGradient></defs><path d="M0 0 C0.38 0 0.38 0 2.33 -0.01 C4.92 -0.01 7.52 0.01 10.11 0.02 C11.98 0.02 13.85 0.02 15.72 0.02 C20.88 0.02 26.04 0.04 31.19 0.07 C36.75 0.09 42.31 0.09 47.86 0.1 C58.76 0.11 69.66 0.14 80.56 0.18 C93.26 0.22 105.96 0.25 118.66 0.27 C142.04 0.32 165.41 0.38 188.78 0.46 C210.07 0.52 231.37 0.57 252.66 0.62 C254.03 0.62 255.39 0.62 256.76 0.62 C257.43 0.63 258.11 0.63 258.8 0.63 C262.2 0.63 265.59 0.64 268.99 0.65 C269.66 0.65 270.33 0.65 271.02 0.65 C288.84 0.69 306.66 0.73 324.48 0.78 C327.04 0.79 329.59 0.79 332.15 0.8 C332.78 0.8 332.78 0.8 335.97 0.81 C344.81 0.83 353.64 0.85 362.48 0.87 C373.28 0.89 384.08 0.92 394.87 0.96 C400.38 0.98 405.88 1 411.38 1 C462.89 1.08 462.89 1.08 486.37 5.3 C487.32 5.45 488.26 5.61 489.23 5.77 C494.95 6.76 500.49 8.09 506.08 9.67 C509.17 10.53 512.29 11.21 515.44 11.86 C516.03 11.98 516.03 11.98 519.03 12.62 C521.27 13.09 523.51 13.55 525.74 14 C534.99 15.98 543.72 19.08 552.56 22.36 C553.26 22.61 553.95 22.86 554.67 23.12 C559.42 24.86 563.81 26.96 568.26 29.37 C570.56 30.36 570.56 30.36 574.56 30.36 C574.99 30.81 575.43 31.27 575.87 31.73 C578.38 34.15 581.24 34.54 584.56 35.36 C584.56 36.02 584.56 36.68 584.56 37.36 C585.19 37.47 585.81 37.58 586.46 37.69 C586.87 37.77 586.87 37.77 588.94 38.17 C589.75 38.32 590.56 38.47 591.4 38.63 C593.56 39.36 593.56 39.36 595.56 42.36 C598.11 43.51 600.7 44.39 603.35 45.3 C604.08 45.65 604.81 46 605.56 46.36 C605.89 47.35 606.22 48.34 606.56 49.36 C607 49.4 607 49.4 609.25 49.61 C613.05 50.47 614.62 51.86 617.56 54.36 C618.1 54.62 618.1 54.62 620.81 55.92 C623.56 57.36 623.56 57.36 624.56 60.36 C627.5 61.48 627.5 61.48 630.56 62.36 C632.56 63.36 632.56 63.36 633.87 64.73 C635.9 66.69 638.14 67.93 640.56 69.36 C641.22 70.02 641.88 70.68 642.56 71.36 C644.69 71.98 644.69 71.98 646.56 72.36 C646.56 73.35 646.56 74.34 646.56 75.36 C647.14 75.65 647.72 75.94 648.31 76.23 C649.05 76.61 649.8 76.98 650.56 77.36 C651.22 77.65 651.88 77.94 652.56 78.23 C655 79.61 656.58 81.38 658.56 83.36 C660.41 84.65 662.27 85.9 664.17 87.11 C664.63 87.52 665.09 87.94 665.56 88.36 C665.56 89.35 665.56 90.34 665.56 91.36 C666.26 91.63 666.96 91.9 667.69 92.17 C668.63 92.56 669.58 92.96 670.56 93.36 C671.59 93.77 672.62 94.18 673.69 94.61 C677.16 96.72 678.07 98.64 679.56 102.36 C680.22 102.36 680.88 102.36 681.56 102.36 C681.56 103.02 681.56 103.68 681.56 104.36 C682.55 104.69 683.54 105.02 684.56 105.36 C684.23 105.69 683.9 106.02 683.56 106.36 C684.55 106.69 685.54 107.02 686.56 107.36 C686.89 108.35 687.22 109.34 687.56 110.36 C688.05 110.58 688.05 110.58 690.5 111.67 C693.56 113.36 693.56 113.36 694.75 116.48 C694.88 116.96 694.88 116.96 695.56 119.36 C696.55 119.69 697.54 120.02 698.56 120.36 C700.24 122.07 700.24 122.07 702 124.17 C703.84 126.35 705.61 128.4 707.69 130.36 C709.95 132.77 711.48 135.39 713.12 138.26 C714.97 140.96 717.23 143.07 719.56 145.36 C724.29 150.69 728.68 155.87 731.61 162.4 C732.72 164.69 734.06 166.7 735.5 168.8 C739.8 175.11 743.34 181.76 746.67 188.63 C747.56 190.36 747.56 190.36 749.56 193.36 C753.24 200.26 756.46 207.31 759.41 214.55 C760.43 217.05 761.51 219.52 762.62 221.98 C763.27 223.44 763.92 224.9 764.56 226.36 C764.87 227.04 765.17 227.73 765.49 228.43 C768.38 235.25 770.41 242.3 772.45 249.4 C772.7 250.24 772.94 251.08 773.19 251.95 C773.3 252.32 773.3 252.32 773.85 254.23 C774.56 256.36 774.56 256.36 775.6 258.43 C777.57 262.39 777.9 267.01 778.68 271.34 C779.23 274.13 780 276.7 780.97 279.37 C783.27 286.04 784.34 293 785.56 299.92 C785.69 300.65 785.82 301.37 785.95 302.12 C790.24 326.05 792.78 349.79 792.75 374.11 C792.75 374.97 792.75 375.82 792.75 376.71 C792.66 412.42 789.43 450 777.38 483.89 C776.63 486.14 776.12 488.29 775.69 490.61 C774.64 495.82 772.64 500.68 770.68 505.6 C769.51 508.58 768.58 511.2 768.1 514.39 C767.4 518.22 765.74 521.33 763.94 524.73 C760.67 531.04 757.69 537.42 754.91 543.95 C750.39 554.53 750.39 554.53 747.56 557.36 C747.29 558.06 747.02 558.76 746.75 559.48 C745.7 562.03 744.54 564.06 743.06 566.36 C741.18 569.29 739.82 572.11 738.56 575.36 C737.59 576.71 736.59 578.05 735.56 579.36 C735.05 580.27 734.53 581.17 734 582.11 C733.52 582.85 733.05 583.59 732.56 584.36 C731.9 584.36 731.24 584.36 730.56 584.36 C730.23 586.01 729.9 587.66 729.56 589.36 C728.9 589.36 728.24 589.36 727.56 589.36 C727.23 590.68 726.9 592 726.56 593.36 C725.9 593.36 725.24 593.36 724.56 593.36 C724.43 593.84 724.43 593.84 723.75 596.3 C723.55 596.8 723.55 596.8 722.56 599.36 C721.57 599.69 720.58 600.02 719.56 600.36 C718.84 602 718.18 603.67 717.56 605.36 C716.9 606.02 716.24 606.68 715.56 607.36 C714.29 609.34 713.08 611.36 711.88 613.39 C710.6 615.31 709.2 616.75 707.56 618.36 C707.23 619.02 706.9 619.68 706.56 620.36 C705.9 620.36 705.24 620.36 704.56 620.36 C704.56 621.02 704.56 621.68 704.56 622.36 C703.9 622.36 703.24 622.36 702.56 622.36 C702.46 622.72 702.46 622.72 701.94 624.55 C700.59 627.29 699.81 628.16 697.5 629.98 C694.56 632.36 694.56 632.36 693.56 635.36 C692 636.86 692 636.86 690.12 638.36 C687.67 640.32 686.35 641.68 684.56 644.36 C683.57 644.36 682.58 644.36 681.56 644.36 C681.56 645.35 681.56 646.34 681.56 647.36 C680.57 647.36 679.58 647.36 678.56 647.36 C678.33 647.92 678.11 648.47 677.87 649.05 C674.66 654.71 667.83 661.27 661.56 663.36 C661.56 664.02 661.56 664.68 661.56 665.36 C660.17 666.58 660.17 666.58 658.31 667.86 C657.67 668.3 657.04 668.74 656.38 669.2 C654.56 670.36 654.56 670.36 652.19 671.48 C650.56 672.36 650.56 672.36 649.56 675.36 C648.24 676.04 646.9 676.71 645.56 677.36 C645.22 677.71 645.22 677.71 643.5 679.48 C641.56 681.36 641.56 681.36 638.56 681.36 C638.23 682.35 637.9 683.34 637.56 684.36 C635.56 685.68 635.56 685.68 633.12 686.92 C630.5 688.27 628.66 689.26 626.56 691.36 C621.02 694.36 621.02 694.36 618.56 694.36 C618.23 695.35 617.9 696.34 617.56 697.36 C615.37 698.36 615.37 698.36 612.56 699.36 C606.97 701.93 606.97 701.93 605.12 703.86 C603.19 705.71 601.07 706.46 598.63 707.48 C594.86 709.09 591.19 710.9 587.5 712.67 C581.6 715.48 575.68 718.26 569.69 720.86 C568.62 721.32 567.55 721.79 566.44 722.27 C563.8 723.27 561.34 723.91 558.56 724.36 C558.56 725.02 558.56 725.68 558.56 726.36 C559.22 726.36 559.88 726.36 560.56 726.36 C561.54 728.13 562.52 729.9 563.5 731.67 C564.04 732.66 564.59 733.64 565.15 734.66 C566.56 737.36 566.56 737.36 567.56 740.36 C568.22 740.69 568.88 741.02 569.56 741.36 C572.73 744.98 575.47 748.74 577.25 753.23 C578.56 756.36 578.56 756.36 581.56 758.36 C581.56 759.02 581.56 759.68 581.56 760.36 C582.22 760.69 582.88 761.02 583.56 761.36 C583.23 762.02 582.9 762.68 582.56 763.36 C583.22 763.36 583.88 763.36 584.56 763.36 C586.22 765.81 586.22 765.81 588.06 769.05 C588.67 770.1 589.28 771.16 589.9 772.25 C591.32 774.92 592.51 777.53 593.56 780.36 C594.22 780.36 594.88 780.36 595.56 780.36 C595.62 780.68 595.62 780.68 595.94 782.3 C596.14 782.98 596.35 783.66 596.56 784.36 C597.22 784.69 597.88 785.02 598.56 785.36 C598.89 786.69 599.23 788.03 599.56 789.36 C600.22 789.69 600.88 790.02 601.56 790.36 C602.56 792.03 603.56 793.69 604.56 795.36 C605.22 795.69 605.88 796.02 606.56 796.36 C607.23 798.02 607.9 799.69 608.56 801.36 C609.68 803.08 610.85 804.76 612.06 806.42 C614.18 809.34 615.96 812.14 617.56 815.36 C617.88 815.67 617.88 815.67 619.5 817.23 C621.92 819.73 623.03 822.24 624.56 825.36 C625.86 827.19 627.19 828.98 628.57 830.75 C629.56 832.36 629.56 832.36 629.56 835.36 C630.22 835.36 630.88 835.36 631.56 835.36 C634.41 838.58 637.56 842.96 637.56 847.36 C638.22 847.69 638.88 848.02 639.56 848.36 C642.36 851.77 644.65 855.39 646.56 859.36 C647.22 860.02 647.88 860.68 648.56 861.36 C649.01 862.29 649.47 863.22 649.94 864.17 C651.53 867.31 653.33 869.65 655.56 872.36 C658.95 877.33 662.17 882.41 665.38 887.5 C666.97 890 668.46 892.26 670.56 894.36 C670.56 895.35 670.56 896.34 670.56 897.36 C671.22 897.36 671.88 897.36 672.56 897.36 C672.56 898.35 672.56 899.34 672.56 900.36 C673.22 900.36 673.88 900.36 674.56 900.36 C674.56 901.02 674.56 901.68 674.56 902.36 C675.22 902.69 675.88 903.02 676.56 903.36 C677.26 904.68 677.92 906.01 678.56 907.36 C679.46 908.77 680.37 910.16 681.31 911.55 C681.84 912.33 682.37 913.12 682.91 913.93 C683.99 915.52 685.07 917.11 686.15 918.7 C694.56 931.19 694.56 931.19 694.56 934.36 C695.22 934.36 695.88 934.36 696.56 934.36 C697.85 936.04 697.85 936.04 699.19 938.23 C699.63 938.95 700.08 939.67 700.54 940.41 C701.56 942.36 701.56 942.36 701.56 944.36 C701.89 944.52 701.89 944.52 703.56 945.36 C704.58 947.01 705.58 948.68 706.56 950.36 C707.22 951.02 707.88 951.68 708.56 952.36 C708.97 953.23 709.39 954.09 709.81 954.98 C711.58 958.39 713.61 961.17 715.93 964.2 C717.67 966.5 719.32 968.85 720.94 971.23 C721.19 971.6 721.19 971.6 722.46 973.48 C723.56 975.36 723.56 975.36 723.56 977.36 C724.22 977.36 724.88 977.36 725.56 977.36 C725.89 979.01 726.22 980.66 726.56 982.36 C727.22 982.36 727.88 982.36 728.56 982.36 C728.99 983.27 729.43 984.17 729.87 985.11 C731.28 987.82 732.71 989.97 734.56 992.36 C735.95 994.6 737.28 996.86 738.57 999.16 C740.07 1001.84 741.38 1004.18 743.56 1006.36 C744.46 1007.51 745.33 1008.68 746.19 1009.86 C746.63 1010.47 747.08 1011.08 747.54 1011.7 C748.56 1013.36 748.56 1013.36 748.56 1015.36 C748.89 1015.52 748.89 1015.52 750.56 1016.36 C750.78 1016.8 750.78 1016.8 751.87 1019.05 C753.4 1022.05 755.11 1024.21 757.31 1026.73 C759.1 1029.06 760.21 1031.62 761.45 1034.27 C763.08 1037.33 765.2 1039.92 767.39 1042.6 C768.56 1044.36 768.56 1044.36 768.56 1047.36 C769.22 1047.36 769.88 1047.36 770.56 1047.36 C770.86 1047.9 770.86 1047.9 772.37 1050.61 C773.59 1052.76 774.74 1054.57 776.31 1056.48 C777.91 1058.89 777.8 1060.53 777.56 1063.36 C771.24 1064.49 765.04 1064.51 758.63 1064.5 C758.04 1064.51 758.04 1064.51 755.04 1064.51 C751.81 1064.52 748.58 1064.53 745.35 1064.53 C743.33 1064.53 741.31 1064.53 739.29 1064.53 C732.23 1064.54 725.18 1064.55 718.13 1064.54 C711.56 1064.54 704.99 1064.55 698.42 1064.57 C692.77 1064.58 687.12 1064.59 681.47 1064.59 C678.1 1064.59 674.73 1064.59 671.36 1064.6 C667.61 1064.61 663.86 1064.61 660.1 1064.6 C658.99 1064.61 657.87 1064.61 656.72 1064.62 C656.21 1064.62 656.21 1064.62 653.63 1064.61 C653.18 1064.61 653.18 1064.61 650.94 1064.61 C648.33 1064.33 646.76 1063.77 644.56 1062.36 C643.17 1060.4 641.84 1058.4 640.56 1056.36 C639.88 1055.53 639.2 1054.71 638.5 1053.86 C636.1 1050.76 633.56 1047.39 633.56 1043.36 C632.9 1043.03 632.24 1042.7 631.56 1042.36 C631.42 1041.7 631.27 1041.04 631.12 1040.36 C630.94 1039.7 630.75 1039.04 630.56 1038.36 C629.57 1038.03 628.58 1037.7 627.56 1037.36 C626.37 1033.8 626.37 1033.8 625.56 1030.36 C624.9 1030.36 624.24 1030.36 623.56 1030.36 C623.56 1029.7 623.56 1029.04 623.56 1028.36 C622.9 1028.03 622.24 1027.7 621.56 1027.36 C619.42 1024.38 617.72 1021.85 616.56 1018.36 C615.9 1018.03 615.24 1017.7 614.56 1017.36 C614.56 1016.7 614.56 1016.04 614.56 1015.36 C613.9 1015.03 613.24 1014.7 612.56 1014.36 C611.62 1012.69 610.69 1011.01 609.77 1009.33 C608.11 1006.62 606.07 1004.37 603.93 1002.03 C602.46 1000.23 601.58 998.45 600.56 996.36 C599.62 994.93 598.66 993.51 597.69 992.11 C595.67 989.14 593.95 986.23 592.44 982.98 C590.93 979.81 589.46 978.39 586.56 976.36 C585.5 973.98 585.5 973.98 584.56 971.36 C582.42 967.56 579.99 963.97 577.56 960.36 C576.52 958.8 575.48 957.23 574.44 955.67 C574.19 955.3 574.19 955.3 572.93 953.41 C569.56 948.36 569.56 948.36 569.56 945.36 C568.9 945.03 568.24 944.7 567.56 944.36 C565.43 941.79 563.52 939.06 561.56 936.36 C561.08 935.73 560.59 935.1 560.09 934.45 C557.59 931.14 555.94 928.54 555.56 924.36 C554.57 924.03 553.58 923.7 552.56 923.36 C551.52 921.38 550.53 919.37 549.56 917.36 C548.9 916.53 548.24 915.71 547.56 914.86 C545.41 912.17 544.07 909.44 542.56 906.36 C541.9 905.7 541.24 905.04 540.56 904.36 C540.56 903.37 540.56 902.38 540.56 901.36 C539.9 901.36 539.24 901.36 538.56 901.36 C538.33 900.8 538.11 900.25 537.87 899.67 C536.56 897.36 536.56 897.36 534.25 895.17 C531.3 892.08 529.6 889.03 527.67 885.25 C526.56 883.36 526.56 883.36 524.56 882.36 C523.47 880.14 522.58 877.88 521.66 875.59 C520.55 873.34 519.34 872.09 517.56 870.36 C517.56 869.7 517.56 869.04 517.56 868.36 C516.9 868.36 516.24 868.36 515.56 868.36 C515.3 867.68 515.03 867.01 514.76 866.31 C514.4 865.42 514.05 864.53 513.69 863.61 C513.34 862.73 512.99 861.85 512.63 860.94 C511.7 858.69 510.68 856.52 509.56 854.36 C508.9 854.36 508.24 854.36 507.56 854.36 C507.22 853.73 506.89 853.11 506.54 852.46 C506.31 852.05 506.31 852.05 505.19 849.98 C504.74 849.17 504.3 848.36 503.85 847.52 C502.56 845.36 502.56 845.36 500.56 843.36 C496.56 837.17 496.56 837.17 496.56 834.36 C495.9 834.36 495.24 834.36 494.56 834.36 C494.31 833.62 494.07 832.87 493.81 832.11 C492.45 829.11 490.9 827.63 488.56 825.36 C487.53 823.71 486.53 822.04 485.56 820.36 C484.56 819.02 483.56 817.69 482.56 816.36 C481.53 814.87 480.51 813.37 479.5 811.86 C478.99 811.11 478.49 810.35 477.96 809.58 C476.56 807.36 476.56 807.36 475.5 805.2 C474.56 803.36 474.56 803.36 472.56 801.36 C471.86 800.04 471.2 798.71 470.56 797.36 C470.19 796.66 469.82 795.96 469.44 795.23 C468.56 793.36 468.56 793.36 468.56 791.36 C467.9 791.36 467.24 791.36 466.56 791.36 C465.09 789.31 465.09 789.31 463.5 786.61 C462.97 785.73 462.44 784.85 461.9 783.94 C460.73 781.69 460.03 779.83 459.56 777.36 C458.9 777.36 458.24 777.36 457.56 777.36 C456.16 775.35 456.16 775.35 454.62 772.67 C454.37 772.24 454.37 772.24 453.1 770.03 C452.59 769.15 452.08 768.27 451.56 767.36 C449.01 762.97 446.1 758.94 443.08 754.86 C441.52 752.29 440.95 750.32 440.56 747.36 C439.9 747.36 439.24 747.36 438.56 747.36 C437.12 745.31 437.12 745.31 435.56 742.61 C435.3 742.17 435.3 742.17 434 739.94 C433.14 738.39 432.31 736.82 431.56 735.22 C430.47 733.19 429.19 731.97 427.56 730.36 C426.74 729.03 425.98 727.67 425.25 726.3 C423.47 723 421.63 719.76 419.69 716.55 C419.19 715.72 418.69 714.89 418.18 714.04 C417.02 712.12 415.86 710.19 414.69 708.27 C414.38 707.75 414.38 707.75 412.81 705.11 C412.24 704.16 411.67 703.2 411.08 702.22 C409.56 699.36 409.56 699.36 408.48 696.06 C407.56 693.36 407.56 693.36 405.56 692.36 C405.56 691.7 405.56 691.04 405.56 690.36 C404.9 690.03 404.24 689.7 403.56 689.36 C402.73 687.74 401.97 686.09 401.25 684.42 C398.52 678.23 395.65 672.11 392.35 666.2 C392.09 665.59 391.83 664.98 391.56 664.36 C391.89 663.7 392.22 663.04 392.56 662.36 C391.9 662.36 391.24 662.36 390.56 662.36 C390.56 661.37 390.56 660.38 390.56 659.36 C389.9 659.36 389.24 659.36 388.56 659.36 C388.25 658.45 387.93 657.55 387.61 656.61 C385.46 650.5 383.26 644.47 380.53 638.59 C379 635.08 377.81 631.46 376.59 627.84 C375.54 625.31 374.21 623.52 372.56 621.36 C372.2 619.36 371.87 617.36 371.56 615.36 C370.83 613.27 370.02 611.23 369.18 609.19 C368.56 607.36 368.56 607.36 368.56 604.36 C367.9 604.36 367.24 604.36 366.56 604.36 C366.51 604.04 366.51 604.04 366.25 602.42 C366.02 601.74 365.79 601.06 365.56 600.36 C364.57 600.03 363.58 599.7 362.56 599.36 C362.15 598.88 361.74 598.41 361.31 597.92 C357.82 594.8 354.1 594.32 349.58 594.43 C345.14 594.77 340.85 595.16 336.56 596.36 C336.56 598.34 336.56 600.32 336.56 602.36 C335.24 602.03 333.92 601.7 332.56 601.36 C331.92 602.43 331.28 603.5 330.62 604.61 C330.44 604.91 330.44 604.91 329.53 606.44 C325.21 614.98 324.81 628.13 326.56 637.36 C326.89 638.02 327.22 638.68 327.56 639.36 C327.83 641.85 328.01 644.35 328.18 646.85 C328.57 649.43 329.34 651.08 330.56 653.36 C331.05 655.29 331.54 657.22 332 659.16 C333.68 665.75 336.17 672.03 338.79 678.29 C339.56 680.36 339.56 680.36 339.56 682.36 C340.22 682.69 340.88 683.02 341.56 683.36 C342.19 686.42 342.19 686.42 342.56 689.36 C343.22 689.36 343.88 689.36 344.56 689.36 C345.61 691.9 346.58 694.43 347.41 697.05 C348.74 700.86 350.35 704.46 352.06 708.11 C352.21 708.44 352.21 708.44 352.99 710.14 C354.3 712.93 355.37 715.17 357.56 717.36 C358.83 719.68 359.72 721.84 360.56 724.36 C361.22 725.02 361.88 725.68 362.56 726.36 C363.41 727.94 364.22 729.55 365 731.17 C366.7 734.69 368.53 738.03 370.56 741.36 C371.71 743.34 372.85 745.32 374 747.3 C376.4 751.42 378.87 755.42 381.56 759.36 C382.04 760.16 382.51 760.97 383 761.8 C384.69 764.58 386.59 767.13 388.57 769.71 C389.56 771.36 389.56 771.36 389.56 774.36 C390.22 774.69 390.88 775.02 391.56 775.36 C392.6 777 393.59 778.68 394.56 780.36 C394.88 780.83 394.88 780.83 396.5 783.23 C398.26 785.91 399.85 788.62 401.41 791.42 C403.25 794.53 405.33 797.48 407.39 800.44 C408.56 802.36 408.56 802.36 408.56 804.36 C409.22 804.69 409.88 805.02 410.56 805.36 C412.32 807.29 413.92 809.33 415.56 811.36 C415.23 812.02 414.9 812.68 414.56 813.36 C415.22 813.36 415.88 813.36 416.56 813.36 C417.74 815.17 418.83 817.03 419.87 818.92 C421.94 822.58 423.99 826.11 426.5 829.48 C428.56 832.36 428.56 832.36 428.56 834.36 C429.22 834.69 429.88 835.02 430.56 835.36 C431.19 837.42 431.19 837.42 431.56 839.36 C432.22 839.36 432.88 839.36 433.56 839.36 C433.96 840.11 434.36 840.85 434.77 841.62 C435.3 842.61 435.83 843.59 436.37 844.61 C436.9 845.58 437.42 846.56 437.96 847.56 C439.56 850.36 439.56 850.36 441.26 852.59 C442.56 854.36 442.56 854.36 442.56 856.36 C443.22 856.69 443.88 857.02 444.56 857.36 C447.44 858.8 447.89 861.11 449.22 863.91 C451.34 867.8 454.02 871.25 456.66 874.8 C458.15 876.81 459.57 878.83 460.94 880.92 C462.56 883.36 462.56 883.36 464.56 885.36 C465.41 886.78 466.21 888.22 467 889.67 C467.44 890.48 467.89 891.29 468.34 892.13 C468.74 892.86 469.15 893.6 469.56 894.36 C472.98 900.31 476.9 905.97 480.81 911.61 C482.43 914.15 483.56 916.53 484.56 919.36 C485.22 919.36 485.88 919.36 486.56 919.36 C487.72 920.98 487.72 920.98 489.06 923.36 C491.85 928.15 494.7 932.9 497.62 937.61 C498.03 938.28 498.45 938.95 498.87 939.65 C501.48 943.86 504.34 947.59 507.56 951.36 C508.26 952.68 508.93 954.01 509.56 955.36 C510.55 956.7 511.55 958.04 512.56 959.36 C516.56 965.07 516.56 965.07 516.56 967.36 C517.22 967.36 517.88 967.36 518.56 967.36 C520.49 970.12 521.77 972.86 523.06 975.98 C524.38 978.95 525.24 980.26 527.56 982.36 C527.56 983.02 527.56 983.68 527.56 984.36 C528.22 984.69 528.88 985.02 529.56 985.36 C530.85 987.14 530.85 987.14 532.19 989.3 C532.63 990.01 533.08 990.72 533.54 991.45 C534.56 993.36 534.56 993.36 534.56 995.36 C535.22 995.36 535.88 995.36 536.56 995.36 C537.58 997.39 538.59 999.43 539.56 1001.48 C540.56 1003.36 540.56 1003.36 542.56 1005.36 C543.5 1006.7 544.41 1008.05 545.31 1009.42 C545.84 1010.22 546.37 1011.02 546.91 1011.85 C547.99 1013.49 549.07 1015.13 550.15 1016.78 C557.41 1027.78 557.41 1027.78 560.56 1029.36 C560.68 1030.49 560.81 1031.63 560.94 1032.8 C561.56 1036.36 561.56 1036.36 563.5 1037.73 C563.84 1037.84 563.84 1037.84 565.56 1038.36 C566.22 1038.69 566.88 1039.02 567.56 1039.36 C567.23 1040.68 566.9 1042 566.56 1043.36 C567.22 1043.36 567.88 1043.36 568.56 1043.36 C568.56 1044.02 568.56 1044.68 568.56 1045.36 C569.22 1045.36 569.88 1045.36 570.56 1045.36 C570.79 1046.02 571.01 1046.68 571.25 1047.36 C572.39 1049.96 573.62 1052.01 575.19 1054.36 C577.21 1057.49 578.16 1059.54 577.56 1063.36 C575.05 1064.61 573.34 1064.5 570.53 1064.51 C569.47 1064.52 568.4 1064.53 567.31 1064.54 C566.14 1064.54 564.96 1064.55 563.75 1064.55 C562.52 1064.56 561.29 1064.57 560.02 1064.58 C555.94 1064.6 551.85 1064.62 547.76 1064.63 C546.35 1064.64 544.95 1064.64 543.54 1064.65 C537.69 1064.67 531.83 1064.69 525.98 1064.7 C517.59 1064.72 509.2 1064.75 500.81 1064.81 C494.91 1064.85 489.02 1064.86 483.12 1064.87 C479.59 1064.87 476.07 1064.89 472.55 1064.92 C468.62 1064.95 464.69 1064.95 460.75 1064.94 C460.17 1064.95 460.17 1064.95 457.22 1064.99 C449.33 1064.93 449.33 1064.93 445.41 1062.02 C440.56 1055.04 440.56 1055.04 440.56 1051.36 C439.9 1051.36 439.24 1051.36 438.56 1051.36 C438.27 1050.55 437.98 1049.75 437.69 1048.92 C436.56 1046.36 436.56 1046.36 434.56 1045.36 C433.94 1043.3 433.94 1043.3 433.56 1041.36 C432.9 1041.36 432.24 1041.36 431.56 1041.36 C431 1040.35 430.43 1039.35 429.85 1038.32 C427.66 1034.48 425.33 1030.76 422.94 1027.05 C422.54 1026.43 422.15 1025.81 421.74 1025.17 C420.15 1022.69 418.65 1020.45 416.56 1018.36 C412.56 1012.83 412.56 1012.83 412.56 1009.36 C411.9 1009.03 411.24 1008.7 410.56 1008.36 C409.84 1006.72 409.17 1005.05 408.56 1003.36 C407.9 1003.36 407.24 1003.36 406.56 1003.36 C405.12 1001.17 405.12 1001.17 403.56 998.36 C402.01 995.7 400.74 993.54 398.56 991.36 C395.56 986.74 395.56 986.74 395.56 984.36 C394.9 984.03 394.24 983.7 393.56 983.36 C390.05 978.9 386.92 974.17 384.25 969.17 C381.97 964.93 379.37 960.97 376.69 956.98 C376.25 956.34 375.82 955.7 375.38 955.04 C374.52 953.76 373.65 952.48 372.79 951.2 C370.98 948.5 369.2 945.78 367.44 943.05 C366.88 942.18 366.32 941.32 365.74 940.43 C364.56 938.36 364.56 938.36 364.56 936.36 C363.9 936.36 363.24 936.36 362.56 936.36 C361.53 934.71 360.54 933.04 359.56 931.36 C359 930.8 358.45 930.25 357.87 929.67 C357.44 929.24 357.01 928.81 356.56 928.36 C356.56 927.7 356.56 927.04 356.56 926.36 C355.9 925.7 355.24 925.04 354.56 924.36 C354.25 923.72 353.94 923.08 353.62 922.42 C352.56 920.36 352.56 920.36 351.12 919.05 C349.56 917.36 349.56 917.36 348.12 913.98 C346.25 909.65 343.87 906.67 340.56 903.36 C340.56 902.04 340.56 900.72 340.56 899.36 C339.9 899.36 339.24 899.36 338.56 899.36 C338.56 898.37 338.56 897.38 338.56 896.36 C337.9 896.03 337.24 895.7 336.56 895.36 C334.44 893.61 334.44 893.61 332.56 891.36 C332.31 888.61 332.31 888.61 332.56 886.36 C331.9 886.36 331.24 886.36 330.56 886.36 C329.2 884.38 327.87 882.38 326.56 880.36 C326.08 879.92 325.6 879.47 325.11 879.02 C323.04 876.8 322.02 874.42 320.75 871.67 C318.51 867.05 316.1 863.05 312.86 859.08 C311.48 857.26 310.55 855.41 309.56 853.36 C308.57 852.02 307.57 850.69 306.56 849.36 C305.55 847.7 304.55 846.03 303.56 844.36 C302.23 842.28 300.89 840.2 299.55 838.13 C298.56 836.36 298.56 836.36 298.56 834.36 C297.9 834.03 297.24 833.7 296.56 833.36 C295.91 831.74 295.25 830.12 294.6 828.51 C292.93 825.06 290.64 822.09 288.4 818.99 C285.11 814.29 282.01 809.37 279.52 804.2 C278.56 802.36 278.56 802.36 276.56 800.36 C275.5 798.61 274.54 796.82 273.56 795.02 C272.56 793.36 272.56 793.36 270.56 791.36 C270.25 790.22 269.94 789.09 269.62 787.92 C268.55 784.32 268.06 783.8 265.56 781.36 C264.46 779.42 264.46 779.42 263.5 777.36 C262.31 774.83 261.13 772.71 259.56 770.36 C259.26 769.6 258.96 768.83 258.65 768.05 C257.39 764.95 255.79 762.22 254.06 759.36 C252.32 756.47 250.71 753.74 249.47 750.61 C248.56 748.36 248.56 748.36 246.56 746.36 C244.71 743.28 244.56 742.16 244.56 738.36 C243.9 738.03 243.24 737.7 242.56 737.36 C241.68 735.66 240.88 733.92 240.12 732.17 C238.74 729.03 237.35 725.93 235.81 722.86 C234.56 720.36 234.56 720.36 233.56 717.36 C232.9 717.69 232.24 718.02 231.56 718.36 C230.94 720.92 230.94 720.92 230.56 723.36 C229.9 723.36 229.24 723.36 228.56 723.36 C228.51 723.7 228.51 723.7 228.25 725.42 C227.42 728.97 226.05 732.04 224.56 735.36 C220.85 743.9 217.39 752.48 214.56 761.36 C213.9 761.36 213.24 761.36 212.56 761.36 C212.45 761.89 212.33 762.41 212.22 762.95 C211.06 767.18 209.32 771.19 207.72 775.27 C206.83 777.64 206.09 779.89 205.56 782.36 C204.9 782.36 204.24 782.36 203.56 782.36 C203.46 783.21 203.35 784.07 203.24 784.95 C202.5 788.64 201.26 791.54 199.62 794.92 C196.68 801.06 196.68 801.06 195.46 804.11 C194.56 806.36 194.56 806.36 193.12 808.73 C191.65 811.2 190.54 813.69 189.45 816.34 C188.4 818.73 187.2 821.04 186 823.36 C183.99 827.32 182.59 831.04 181.56 835.36 C180.9 835.36 180.24 835.36 179.56 835.36 C179.44 835.92 179.31 836.47 179.19 837.05 C178.5 839.58 177.57 841.94 176.56 844.36 C175.9 844.36 175.24 844.36 174.56 844.36 C174.42 845.14 174.27 845.93 174.12 846.73 C173.56 849.36 173.56 849.36 172.56 851.36 C171.9 851.36 171.24 851.36 170.56 851.36 C170.46 852.07 170.35 852.78 170.24 853.52 C169.48 856.68 168.28 859.03 166.69 861.86 C166.17 862.78 165.66 863.69 165.13 864.64 C164.87 865.09 164.87 865.09 163.56 867.36 C163.04 868.28 162.52 869.19 161.99 870.14 C160.56 872.36 160.56 872.36 158.56 873.36 C158.56 874.68 158.56 876 158.56 877.36 C157.9 877.36 157.24 877.36 156.56 877.36 C156.46 877.92 156.35 878.47 156.25 879.05 C155.42 881.84 154.22 883.97 152.56 886.36 C151.9 886.36 151.24 886.36 150.56 886.36 C150.46 886.91 150.35 887.47 150.25 888.04 C149.42 890.84 148.11 892.95 146.56 895.42 C144.87 898.12 143.57 900.33 142.56 903.36 C141.9 903.36 141.24 903.36 140.56 903.36 C140.25 903.98 139.94 904.6 139.62 905.23 C138.94 906.61 138.25 907.98 137.56 909.36 C136.9 909.36 136.24 909.36 135.56 909.36 C135.23 911.01 134.9 912.66 134.56 914.36 C133.9 914.36 133.24 914.36 132.56 914.36 C132.31 915.06 132.07 915.76 131.81 916.48 C130.39 919.75 128.69 922.5 126.56 925.36 C125.9 925.36 125.24 925.36 124.56 925.36 C124.45 925.62 124.45 925.62 123.87 926.92 C122.08 930.25 120.06 933.51 117.56 936.36 C116.9 936.36 116.24 936.36 115.56 936.36 C115.29 937.29 115.02 938.22 114.75 939.17 C113.65 942.12 113.03 943.51 110.56 945.36 C109.9 945.36 109.24 945.36 108.56 945.36 C108.56 946.02 108.56 946.68 108.56 947.36 C107.45 948.5 106.34 949.64 105.19 950.74 C103.22 952.7 101.4 954.77 99.56 956.86 C91.4 966.08 91.4 966.08 87.56 967.36 C87.43 967.65 87.43 967.65 86.75 969.11 C85.52 971.43 84.51 972.36 82.5 973.98 C79.56 976.36 79.56 976.36 78.56 978.36 C77.9 978.36 77.24 978.36 76.56 978.36 C76.23 979.02 75.9 979.68 75.56 980.36 C74.58 981.38 73.58 982.38 72.56 983.36 C71.9 984.02 71.24 984.68 70.56 985.36 C68.79 986.89 67 988.41 65.22 989.92 C63.95 991.02 62.74 992.18 61.56 993.36 C60.24 993.36 58.92 993.36 57.56 993.36 C57.45 993.67 57.45 993.67 56.87 995.23 C55.18 997.97 53.57 998.41 50.56 999.36 C50.56 1000.02 50.56 1000.68 50.56 1001.36 C49.57 1001.36 48.58 1001.36 47.56 1001.36 C47.23 1002.02 46.9 1002.68 46.56 1003.36 C44.54 1004.87 42.52 1006.32 40.44 1007.73 C39.88 1008.12 39.32 1008.51 38.75 1008.91 C34.8 1011.62 30.74 1014.02 26.56 1016.36 C25.44 1017.01 24.32 1017.66 23.17 1018.32 C13.42 1023.95 3.69 1028.98 -6.74 1033.23 C-8.82 1034.1 -10.86 1035.08 -12.88 1036.11 C-15.43 1037.36 -17.67 1037.82 -20.44 1038.36 C-21.1 1039.02 -21.76 1039.68 -22.44 1040.36 C-25.18 1041.39 -27.9 1042.34 -30.69 1043.23 C-31.09 1043.37 -31.09 1043.37 -33.14 1044.04 C-39.16 1045.99 -45.21 1047.79 -51.31 1049.48 C-54.21 1050.3 -57.07 1051.19 -59.94 1052.11 C-63.54 1053.21 -66.65 1053.66 -70.44 1053.36 C-70.77 1054.02 -71.1 1054.68 -71.44 1055.36 C-73.34 1055.92 -73.34 1055.92 -75.81 1056.36 C-76.72 1056.52 -77.62 1056.69 -78.56 1056.86 C-79.03 1056.94 -79.03 1056.94 -81.44 1057.36 C-83.27 1057.69 -85.11 1058.02 -86.94 1058.36 C-87.85 1058.52 -88.77 1058.69 -89.71 1058.86 C-92.34 1059.34 -94.95 1059.88 -97.56 1060.42 C-101.45 1061.21 -105.29 1061.74 -109.24 1062.11 C-110.91 1062.3 -112.57 1062.56 -114.23 1062.86 C-119.09 1063.62 -123.97 1063.8 -128.88 1064.08 C-132.44 1064.36 -132.44 1064.36 -134.77 1064.86 C-137.79 1065.43 -140.68 1065.55 -143.76 1065.64 C-144.96 1065.68 -146.15 1065.72 -147.38 1065.75 C-149.89 1065.82 -152.4 1065.89 -154.91 1065.96 C-156.1 1066 -157.29 1066.04 -158.51 1066.08 C-159.6 1066.11 -160.69 1066.14 -161.81 1066.17 C-164.44 1066.36 -164.44 1066.36 -166.44 1067.36 C-169 1067.46 -171.52 1067.5 -174.08 1067.49 C-174.84 1067.49 -175.6 1067.49 -176.38 1067.49 C-177.99 1067.5 -179.6 1067.49 -181.21 1067.49 C-183.67 1067.48 -186.12 1067.49 -188.57 1067.5 C-190.13 1067.5 -191.7 1067.49 -193.27 1067.49 C-193.63 1067.49 -193.63 1067.49 -195.47 1067.5 C-199.58 1067.48 -203.4 1067.05 -207.44 1066.36 C-209.52 1066.3 -211.61 1066.3 -213.69 1066.33 C-214.88 1066.34 -216.06 1066.36 -217.28 1066.37 C-219.74 1066.4 -222.19 1066.44 -224.64 1066.49 C-231.76 1066.55 -238.48 1066.09 -245.5 1064.84 C-248.53 1064.34 -251.51 1064.1 -254.56 1063.92 C-260.95 1063.5 -267.17 1062.5 -273.48 1061.45 C-278.94 1060.55 -284.35 1059.98 -289.87 1059.61 C-293.1 1059.3 -296.14 1058.6 -299.28 1057.83 C-302.29 1057.17 -305.3 1056.88 -308.35 1056.58 C-311.07 1056.29 -313.75 1055.84 -316.44 1055.36 C-316.44 1055.03 -316.44 1054.7 -316.44 1054.36 C-318.58 1053.86 -318.58 1053.86 -329.44 1051.36 C-330.44 1045.59 -330.55 1040.02 -330.49 1034.17 C-330.49 1033.17 -330.48 1032.17 -330.47 1031.14 C-330.45 1027.86 -330.42 1024.57 -330.39 1021.28 C-330.37 1019 -330.35 1016.71 -330.33 1014.42 C-330.29 1009.63 -330.25 1004.83 -330.2 1000.04 C-330.14 993.9 -330.09 987.76 -330.05 981.61 C-330.01 976.89 -329.97 972.16 -329.92 967.44 C-329.9 965.17 -329.88 962.91 -329.87 960.64 C-329.84 957.48 -329.81 954.32 -329.77 951.16 C-329.77 950.22 -329.77 949.28 -329.76 948.32 C-329.76 947.88 -329.76 947.88 -329.72 945.7 C-329.72 944.96 -329.71 944.21 -329.7 943.44 C-329.4 941.07 -328.61 939.43 -327.44 937.36 C-323.06 937.09 -319.61 938.06 -315.44 939.36 C-313.71 939.88 -311.98 940.4 -310.25 940.92 C-309.84 941.05 -309.84 941.05 -307.77 941.68 C-304.52 942.63 -301.85 943.36 -298.44 943.36 C-293.71 944.06 -289.03 944.82 -284.5 946.36 C-279.6 947.96 -274.52 948.59 -269.44 949.36 C-269.44 950.02 -269.44 950.68 -269.44 951.36 C-268.45 951.03 -267.46 950.7 -266.44 950.36 C-264.32 950.45 -264.32 950.45 -262 950.73 C-261.24 950.82 -260.48 950.91 -259.69 951.01 C-257.56 951.34 -255.53 951.82 -253.44 952.36 C-250.06 952.89 -246.86 953.36 -243.44 953.36 C-242.45 953.69 -241.46 954.02 -240.44 954.36 C-224.98 956.43 -209.24 956.77 -193.66 957.05 C-190.35 957.11 -187.03 957.19 -183.71 957.28 C-172.35 957.52 -161.67 957.2 -150.44 955.36 C-146.59 955 -142.74 954.87 -138.88 954.7 C-135.2 954.34 -131.98 953.41 -128.44 952.36 C-126.4 952.01 -124.36 951.7 -122.31 951.42 C-113.48 950.13 -104.89 948.24 -96.44 945.36 C-94.96 944.91 -93.48 944.48 -92 944.05 C-87.46 942.69 -82.95 941.26 -78.44 939.8 C-78.11 939.69 -78.11 939.69 -76.44 939.16 C-73.53 938.2 -71.63 937.55 -69.44 935.36 C-67.8 934.6 -66.12 933.9 -64.44 933.23 C-63.55 932.88 -62.67 932.53 -61.75 932.16 C-59.44 931.36 -59.44 931.36 -57.44 931.36 C-57.11 930.7 -56.78 930.04 -56.44 929.36 C-54.49 928.25 -52.51 927.22 -50.5 926.23 C-49.42 925.7 -48.34 925.16 -47.22 924.6 C-44.44 923.36 -44.44 923.36 -42.44 923.36 C-41.78 922.04 -41.12 920.72 -40.44 919.36 C-39.45 919.36 -38.46 919.36 -37.44 919.36 C-35.53 918.26 -35.53 918.26 -33.38 916.73 C-29.97 914.39 -26.54 912.14 -23 909.98 C-22.18 909.48 -21.35 908.98 -20.51 908.46 C-18.44 907.36 -18.44 907.36 -16.44 907.36 C-16.13 906.74 -15.82 906.12 -15.5 905.48 C-14.81 904.11 -14.13 902.73 -13.44 901.36 C-13.15 901.3 -13.15 901.3 -11.67 900.99 C-8.63 900.13 -7.09 898.45 -4.81 896.3 C-0.65 892.36 -0.65 892.36 1.56 892.36 C1.89 891.37 2.22 890.38 2.56 889.36 C3.22 889.36 3.88 889.36 4.56 889.36 C4.56 888.7 4.56 888.04 4.56 887.36 C5.22 887.36 5.88 887.36 6.56 887.36 C6.56 886.7 6.56 886.04 6.56 885.36 C8.1 883.88 8.1 883.88 10.19 882.17 C13.49 879.37 16.33 876.5 19.04 873.13 C20.56 871.36 20.56 871.36 22.89 869.07 C26.37 865.54 29.48 861.74 32.63 857.91 C34.82 855.28 36.69 853.27 39.56 851.36 C40.84 849.3 40.84 849.3 42.06 846.92 C43.62 843.88 45.15 841.76 47.56 839.36 C47.56 838.7 47.56 838.04 47.56 837.36 C48.55 836.7 49.54 836.04 50.56 835.36 C51.22 834.37 51.88 833.38 52.56 832.36 C53.12 831.59 53.68 830.81 54.25 830.02 C54.87 829.16 55.49 828.3 56.12 827.42 C56.74 826.57 57.36 825.71 58 824.83 C59.42 822.58 60.12 820.96 60.56 818.36 C61.22 818.36 61.88 818.36 62.56 818.36 C62.85 817.64 63.14 816.92 63.44 816.17 C63.81 815.24 64.18 814.32 64.56 813.36 C64.83 812.62 65.1 811.87 65.37 811.11 C66.81 807.78 68.55 804.69 70.34 801.54 C71.56 799.36 71.56 799.36 72.59 797.14 C73.56 795.36 73.56 795.36 75.56 794.36 C75.66 793.62 75.77 792.87 75.87 792.11 C76.8 788.4 78.73 786.85 81.56 784.36 C82.22 784.03 82.88 783.7 83.56 783.36 C83.91 781.36 84.24 779.36 84.56 777.36 C85.22 776.37 85.88 775.38 86.56 774.36 C87.22 774.36 87.88 774.36 88.56 774.36 C88.68 773.64 88.81 772.92 88.94 772.17 C89.55 769.4 90.45 766.96 91.56 764.36 C92.22 764.36 92.88 764.36 93.56 764.36 C93.68 763.64 93.81 762.92 93.94 762.17 C95.05 757.15 97.25 752.7 99.75 748.23 C99.88 747.92 99.88 747.92 100.56 746.36 C100.23 745.7 99.9 745.04 99.56 744.36 C100.55 744.03 101.54 743.7 102.56 743.36 C103.52 741.6 103.52 741.6 104.37 739.23 C104.54 738.79 104.54 738.79 105.39 736.53 C105.78 735.48 106.16 734.44 106.56 733.36 C107.57 730.75 108.59 728.15 109.62 725.55 C109.87 724.91 110.11 724.28 110.37 723.63 C111.48 720.79 112.66 718.2 114.24 715.6 C115.56 713.36 115.56 713.36 115.56 710.36 C116.22 710.36 116.88 710.36 117.56 710.36 C117.71 709.62 117.85 708.87 118 708.11 C118.46 705.84 118.98 703.6 119.56 701.36 C120.22 701.36 120.88 701.36 121.56 701.36 C121.74 700.79 121.92 700.22 122.11 699.64 C123.47 695.47 124.9 691.39 126.67 687.38 C127.86 684.68 128.99 681.96 130.12 679.23 C130.54 678.24 130.95 677.25 131.38 676.23 C132.46 673.61 133.52 670.99 134.56 668.36 C135.22 668.36 135.88 668.36 136.56 668.36 C136.89 667.2 137.22 666.05 137.56 664.86 C139.37 659.37 141.96 654.33 144.6 649.21 C146.77 644.99 148.74 640.74 150.56 636.36 C151.22 636.36 151.88 636.36 152.56 636.36 C153.22 633.72 153.88 631.08 154.56 628.36 C155.22 628.36 155.88 628.36 156.56 628.36 C156.89 626.71 157.22 625.06 157.56 623.36 C158.22 623.36 158.88 623.36 159.56 623.36 C159.68 622.79 159.81 622.23 159.94 621.65 C160.6 619.21 161.51 617.04 162.56 614.73 C162.91 613.96 163.26 613.18 163.62 612.38 C164.25 611.03 164.9 609.69 165.56 608.36 C166.22 608.36 166.88 608.36 167.56 608.36 C167.81 607.82 168.06 607.28 168.31 606.73 C169.85 603.81 171.65 601.15 173.5 598.42 C175.49 595.48 177.44 592.58 179.19 589.48 C179.42 589.13 179.42 589.13 180.56 587.36 C181.22 587.36 181.88 587.36 182.56 587.36 C182.83 586.62 183.1 585.87 183.37 585.11 C184.51 582.47 185.65 580.5 187.56 578.36 C188.22 578.36 188.88 578.36 189.56 578.36 C189.56 577.7 189.56 577.04 189.56 576.36 C190.22 576.36 190.88 576.36 191.56 576.36 C191.64 575.78 191.73 575.2 191.81 574.61 C192.8 571.65 194.29 570.51 196.56 568.36 C197.67 567.07 198.78 565.78 199.87 564.48 C202.68 561.24 205.63 558.46 208.93 555.73 C211.91 553.22 214.59 550.4 217.25 547.55 C218.56 546.36 218.56 546.36 220.56 546.36 C220.56 545.7 220.56 545.04 220.56 544.36 C221.22 544.36 221.88 544.36 222.56 544.36 C222.56 543.7 222.56 543.04 222.56 542.36 C224.2 540.99 225.87 539.66 227.56 538.36 C227.81 538.1 227.81 538.1 229.06 536.8 C231.02 534.92 233.24 533.73 235.56 532.36 C236.22 531.7 236.88 531.04 237.56 530.36 C238.37 530.05 239.17 529.74 240 529.42 C242.56 528.36 242.56 528.36 244.12 526.8 C245.56 525.36 245.56 525.36 247.69 524.86 C248.3 524.69 248.92 524.53 249.56 524.36 C249.89 523.37 250.22 522.38 250.56 521.36 C252.7 520 254.76 518.82 257 517.67 C257.6 517.35 258.2 517.03 258.81 516.7 C263.27 514.36 263.27 514.36 265.56 514.36 C265.89 513.37 266.22 512.38 266.56 511.36 C267.55 511.36 268.54 511.36 269.56 511.36 C270.22 510.7 270.88 510.04 271.56 509.36 C273.54 508.32 275.54 507.33 277.56 506.36 C278.13 506.08 278.69 505.79 279.28 505.5 C288.66 500.81 298.03 496.35 307.94 492.86 C308.65 492.6 309.37 492.35 310.11 492.09 C313.05 491.08 315.43 490.36 318.56 490.36 C318.56 489.7 318.56 489.04 318.56 488.36 C321.62 486.64 324.29 485.95 327.75 485.42 C332.12 484.68 336.12 483.6 340.3 482.14 C351.73 478.21 363.76 475.88 375.56 473.36 C376.42 473.17 377.28 472.98 378.17 472.79 C393.53 469.52 408.99 468.39 424.63 467.4 C440.81 466.35 440.81 466.35 448.56 464.36 C449.51 464.12 450.46 463.89 451.44 463.65 C456.84 462.05 461.57 459.94 466.56 457.36 C467.22 457.36 467.88 457.36 468.56 457.36 C468.56 456.7 468.56 456.04 468.56 455.36 C469.27 455.11 469.97 454.86 470.7 454.61 C473.92 453.2 476.48 451.44 479.31 449.36 C480.27 448.66 481.24 447.96 482.23 447.23 C484.56 445.36 484.56 445.36 485.56 443.36 C486.55 443.36 487.54 443.36 488.56 443.36 C488.62 442.8 488.68 442.25 488.75 441.67 C489.56 439.36 489.56 439.36 491.85 437.12 C494.7 434.22 496.61 431.35 498.69 427.86 C499.02 427.31 499.02 427.31 500.69 424.52 C501.31 423.47 501.93 422.43 502.56 421.36 C503.1 420.47 503.65 419.58 504.21 418.66 C505.97 415.66 507.25 412.58 508.56 409.36 C508.82 408.75 509.08 408.14 509.35 407.52 C518.63 384.72 514.72 356.69 505.83 334.52 C503.25 328.43 500.23 323.38 496.03 318.26 C494.56 316.36 494.56 316.36 494.56 314.36 C493.9 314.36 493.24 314.36 492.56 314.36 C489.56 310.9 489.56 310.9 489.56 308.36 C488.9 308.36 488.24 308.36 487.56 308.36 C487.56 307.7 487.56 307.04 487.56 306.36 C487.24 306.23 487.24 306.23 485.62 305.55 C483.56 304.36 483.56 304.36 482.56 301.36 C481.88 301.11 481.2 300.86 480.5 300.61 C476.83 299.05 474.47 296.75 471.53 294.1 C462.13 285.8 449.19 281.3 436.83 280.18 C435.98 280.1 435.13 280.02 434.26 279.94 C422.3 278.94 410.3 279.12 398.3 279.19 C394.78 279.21 391.26 279.21 387.73 279.22 C381.76 279.23 375.78 279.24 369.8 279.27 C355.15 279.32 340.51 279.33 325.86 279.35 C323.58 279.35 321.3 279.35 319.02 279.35 C296.11 279.38 273.19 279.35 250.27 279.01 C248.28 278.98 246.28 278.96 244.29 278.94 C226.99 278.72 209.53 278.45 192.62 274.36 C191.88 274.19 191.14 274.03 190.38 273.86 C186.85 273.04 183.75 272.07 180.56 270.36 C179.11 269.94 177.65 269.54 176.19 269.17 C169.22 267.14 162.95 263.73 156.56 260.36 C155.5 259.8 154.45 259.25 153.36 258.68 C144.66 254.02 144.66 254.02 141.56 251.36 C141.56 250.7 141.56 250.04 141.56 249.36 C141.28 249.31 141.28 249.31 139.87 249.05 C137.08 248.22 134.95 247.02 132.56 245.36 C132.56 244.7 132.56 244.04 132.56 243.36 C131.24 243.03 129.92 242.7 128.56 242.36 C128.56 241.7 128.56 241.04 128.56 240.36 C127.9 240.36 127.24 240.36 126.56 240.36 C125.23 238.36 123.89 236.36 122.56 234.36 C120.56 232.73 120.56 232.73 118.56 231.36 C115.04 228.36 113.78 225.82 112.56 221.36 C111.57 221.36 110.58 221.36 109.56 221.36 C108.03 219.39 108.03 219.39 106.5 216.86 C104.96 214.33 104.96 214.33 103.56 212.36 C102.9 212.36 102.24 212.36 101.56 212.36 C100.01 208.9 98.64 205.65 97.62 201.98 C96.75 199.01 95.75 196.52 94.44 193.73 C92.92 190.46 92.09 188.03 92.56 184.36 C91.9 184.36 91.24 184.36 90.56 184.36 C90.05 182.32 89.55 180.28 89.06 178.23 C88.92 177.67 88.92 177.67 88.22 174.79 C87.6 171.54 87.44 168.65 87.56 165.36 C90.21 164.04 92.19 164.23 95.15 164.23 C95.75 164.23 95.75 164.23 98.78 164.23 C100.12 164.23 101.46 164.23 102.8 164.23 C104.21 164.23 105.63 164.23 107.04 164.23 C110.94 164.22 114.84 164.23 118.74 164.23 C122.94 164.23 127.14 164.23 131.34 164.22 C139.58 164.22 147.82 164.22 156.06 164.22 C162.77 164.23 169.47 164.23 176.17 164.23 C177.12 164.23 178.07 164.22 179.06 164.22 C180.99 164.22 182.93 164.22 184.86 164.22 C203.04 164.22 221.22 164.22 239.4 164.23 C254.98 164.23 270.56 164.23 286.14 164.23 C304.23 164.22 322.32 164.22 340.41 164.22 C342.35 164.22 344.28 164.22 346.21 164.23 C347.16 164.23 348.11 164.23 349.09 164.23 C355.78 164.23 362.46 164.23 369.14 164.22 C377.3 164.22 385.46 164.22 393.63 164.23 C397.79 164.23 401.95 164.23 406.11 164.23 C409.92 164.22 413.74 164.23 417.56 164.23 C419.57 164.23 421.59 164.23 423.6 164.23 C436.4 164.25 448.91 164.84 461.44 167.61 C462.46 167.83 463.48 168.05 464.54 168.28 C476.66 170.96 488.43 174.16 499.83 179.16 C503.4 180.73 507.04 182.1 510.7 183.46 C512.56 184.36 512.56 184.36 513.56 186.36 C515.56 187.04 517.56 187.7 519.56 188.36 C523.13 190.39 526.55 192.63 530 194.86 C533.77 197.27 537.49 199.49 541.56 201.36 C541.56 202.02 541.56 202.68 541.56 203.36 C542.29 203.62 543.01 203.87 543.76 204.14 C546.68 205.41 548.87 206.9 551.37 208.86 C552.16 209.47 552.95 210.08 553.77 210.7 C554.36 211.25 554.95 211.8 555.56 212.36 C555.56 213.02 555.56 213.68 555.56 214.36 C556.28 214.59 557 214.81 557.75 215.05 C563.06 217.52 566.44 222.33 570.15 226.73 C571.56 228.36 571.56 228.36 573.69 230.42 C579.56 236.49 579.56 236.49 579.56 240.36 C580.22 240.36 580.88 240.36 581.56 240.36 C583.19 241.73 583.19 241.73 584.56 243.36 C584.56 244.02 584.56 244.68 584.56 245.36 C585.22 245.36 585.88 245.36 586.56 245.36 C586.89 246.68 587.22 248 587.56 249.36 C588.55 249.36 589.54 249.36 590.56 249.36 C590.66 250.08 590.76 250.79 590.86 251.53 C591.66 254.77 592.95 256.85 594.81 259.61 C597.11 263.09 599.28 266.56 601.25 270.23 C602.61 272.75 603.82 274.66 605.69 276.86 C607.73 279.59 608.66 282.2 609.65 285.45 C610.6 288.5 611.67 291.5 612.76 294.51 C615.07 300.93 617.25 307.33 618.92 313.96 C619.39 315.71 619.93 317.43 620.52 319.14 C622.2 324.34 623.1 329.68 624.12 335.05 C624.34 336.17 624.57 337.29 624.79 338.44 C627.09 350.41 627.82 362.12 627.87 374.3 C627.88 374.99 627.88 375.69 627.88 376.41 C627.92 394.46 627.49 414.9 622.56 432.36 C621.9 432.36 621.24 432.36 620.56 432.36 C619.57 436.32 618.58 440.28 617.56 444.36 C616.9 444.36 616.24 444.36 615.56 444.36 C615.51 444.94 615.51 444.94 615.25 447.86 C614.59 455.18 610.95 461.81 607.62 468.23 C604.6 474.16 601.85 480.1 599.56 486.36 C598.9 486.36 598.24 486.36 597.56 486.36 C597.45 486.92 597.34 487.48 597.22 488.06 C596.47 490.67 595.35 492.75 594 495.11 C593.54 495.91 593.09 496.71 592.62 497.53 C592.27 498.13 591.92 498.74 591.56 499.36 C590.9 499.36 590.24 499.36 589.56 499.36 C589.23 500.35 588.9 501.34 588.56 502.36 C582.61 511.29 575.91 519.61 567.56 526.36 C564.84 528.95 562.65 531.23 560.56 534.36 C559.9 534.36 559.24 534.36 558.56 534.36 C558.56 535.02 558.56 535.68 558.56 536.36 C557.96 536.65 557.36 536.94 556.75 537.23 C553.69 538.8 551.5 540.43 549.12 542.92 C546.73 545.2 545.75 546 542.56 546.36 C542.56 547.02 542.56 547.68 542.56 548.36 C540.44 549.8 540.44 549.8 537.69 551.36 C532.75 554.17 532.75 554.17 530.56 556.36 C529.57 556.36 528.58 556.36 527.56 556.36 C527.4 557 527.23 557.64 527.06 558.3 C525.56 560.36 525.56 560.36 523.65 560.85 C521.62 561.09 519.59 561.23 517.56 561.36 C517.56 562.02 517.56 562.68 517.56 563.36 C516.57 563.69 515.58 564.02 514.56 564.36 C513.9 565.35 513.24 566.34 512.56 567.36 C510.95 567.86 509.33 568.35 507.69 568.76 C505.22 569.45 502.93 570.38 500.56 571.36 C496.61 572.98 492.68 574.22 488.56 575.36 C485.88 576.31 483.22 577.33 480.56 578.36 C481.55 585.45 484.43 591.3 487.44 597.74 C488.4 599.97 489.02 602 489.56 604.36 C491.09 608.15 492.76 611.79 494.62 615.42 C496.27 618.65 497.52 621.88 498.56 625.36 C505.33 625.36 511.47 623.18 517.56 620.36 C524.56 617.36 524.56 617.36 527.84 615.98 C531.5 614.41 535.06 612.66 538.62 610.86 C539.79 610.27 540.96 609.68 542.16 609.08 C543.28 608.51 544.4 607.94 545.56 607.36 C546.59 606.87 547.62 606.39 548.68 605.89 C551.64 604.32 553.98 602.49 556.56 600.36 C558.32 599.21 560.09 598.09 561.87 596.98 C572.89 590.05 572.89 590.05 577.09 585.81 C579.31 583.62 581.97 582.09 584.56 580.36 C585.14 579.78 585.72 579.2 586.31 578.61 C586.72 578.2 587.14 577.78 587.56 577.36 C588.22 577.36 588.88 577.36 589.56 577.36 C589.56 576.7 589.56 576.04 589.56 575.36 C591.13 573.84 591.13 573.84 593.25 572.11 C596.81 569.08 599.64 566 602.56 562.36 C604.86 560.01 607.2 557.71 609.56 555.42 C613.12 551.75 616.55 548.11 618.56 543.36 C619.22 543.36 619.88 543.36 620.56 543.36 C620.83 542.76 621.1 542.16 621.37 541.55 C622.56 539.36 623.66 537.95 625.56 536.36 C626.22 536.36 626.88 536.36 627.56 536.36 C627.64 535.8 627.73 535.25 627.81 534.67 C628.79 531.64 630.55 529.84 632.56 527.36 C634.1 525.22 635.62 523.08 637.12 520.92 C637.51 520.37 637.9 519.83 638.29 519.26 C641.26 515 643.71 510.68 645.5 505.8 C646.77 502.88 648.57 500.83 650.56 498.36 C651.62 496.39 652.61 494.38 653.56 492.36 C653.77 491.96 653.77 491.96 654.82 489.93 C655.27 489.06 655.72 488.19 656.19 487.3 C656.61 486.48 657.04 485.66 657.47 484.82 C658.56 482.36 658.56 482.36 658.99 480.1 C660 475.26 662.13 470.77 664.03 466.22 C666.07 461.17 667.01 456.76 667.56 451.36 C668.24 449.18 668.24 449.18 669 447.48 C671.93 440.18 672.78 432.25 674 424.51 C674.44 422.05 674.97 419.67 675.56 417.24 C676.82 411.64 677.21 406.01 677.62 400.3 C677.78 398.22 677.94 396.15 678.1 394.07 C678.17 393.09 678.25 392.11 678.32 391.11 C678.53 388.7 678.79 386.32 679.11 383.92 C680.2 375.35 679.43 367.07 678.27 358.55 C678.18 357.86 678.09 357.18 678 356.47 C677.91 355.87 677.83 355.27 677.74 354.65 C677.56 352.36 677.56 352.36 677.62 348.58 C677.64 344.5 677.04 340.7 676.25 336.68 C676.12 335.99 675.98 335.3 675.84 334.59 C675.42 332.41 674.99 330.23 674.56 328.05 C674.13 325.85 673.7 323.65 673.28 321.45 C672.89 319.47 672.5 317.49 672.11 315.51 C671.56 312.36 671.56 312.36 671.56 309.36 C670.9 309.36 670.24 309.36 669.56 309.36 C669.48 308.89 669.48 308.89 669.08 306.5 C667.51 297.88 665.26 290.35 661.56 282.36 C658.56 275.36 658.56 275.36 657.51 272.8 C650.68 256.11 642.71 241.29 632.56 226.36 C627.88 219.34 627.88 219.34 625.94 216.3 C625.71 215.95 625.71 215.95 624.58 214.2 C623.56 212.36 623.56 212.36 623.56 210.36 C622.9 210.36 622.24 210.36 621.56 210.36 C621.29 209.55 621.02 208.75 620.75 207.92 C620.55 207.5 620.55 207.5 619.56 205.36 C618.57 205.03 617.58 204.7 616.56 204.36 C614.74 202.58 614.74 202.58 612.87 200.42 C612.25 199.71 611.63 199 610.99 198.27 C609.56 196.36 609.56 196.36 609.56 194.36 C608.9 194.36 608.24 194.36 607.56 194.36 C607.56 193.7 607.56 193.04 607.56 192.36 C606.9 192.36 606.24 192.36 605.56 192.36 C605.23 191.37 604.9 190.38 604.56 189.36 C603 187.79 603 187.79 601.12 186.23 C600.81 185.97 600.81 185.97 599.25 184.66 C597.56 183.36 597.56 183.36 595.56 182.36 C595.56 181.7 595.56 181.04 595.56 180.36 C594.98 180.09 594.4 179.82 593.8 179.55 C591.53 178.34 589.75 177.02 587.81 175.36 C587.2 174.84 586.58 174.33 585.95 173.8 C584.56 172.36 584.56 172.36 584.56 170.36 C583.98 170.28 583.41 170.19 582.81 170.11 C579.93 169.15 578.66 167.52 576.56 165.36 C574.31 164.11 574.31 164.11 572.56 163.36 C572.56 162.7 572.56 162.04 572.56 161.36 C572.24 161.3 572.24 161.3 570.62 160.98 C569.94 160.78 569.26 160.57 568.56 160.36 C568.23 159.7 567.9 159.04 567.56 158.36 C565.49 157.29 565.49 157.29 563 156.23 C562.17 155.88 561.35 155.53 560.49 155.16 C559.86 154.9 559.22 154.63 558.56 154.36 C558.56 153.7 558.56 153.04 558.56 152.36 C557.3 152.09 556.04 151.82 554.75 151.55 C551.38 150.71 549.91 149.92 547.56 147.36 C545.27 146.22 542.94 145.3 540.56 144.36 C540.56 143.7 540.56 143.04 540.56 142.36 C539.97 142.17 539.38 141.97 538.77 141.77 C534.65 140.41 530.57 139.04 526.56 137.36 C526.56 136.7 526.56 136.04 526.56 135.36 C525.87 135.24 525.18 135.12 524.46 135 C521.22 134.28 518.24 133.25 515.12 132.11 C513.89 131.66 512.66 131.22 511.38 130.76 C508.9 129.86 506.43 128.93 503.96 127.99 C496.51 125.2 489.44 123.4 481.56 122.36 C479.56 122.03 477.56 121.7 475.56 121.36 C475.56 120.7 475.56 120.04 475.56 119.36 C474.36 119.23 473.15 119.09 471.91 118.96 C470.34 118.78 468.76 118.6 467.19 118.42 C466.39 118.33 465.6 118.25 464.78 118.16 C458.79 117.47 458.79 117.47 456.56 116.36 C453.95 116.11 451.37 115.93 448.76 115.8 C447.92 115.76 447.09 115.72 446.23 115.67 C434.32 115.14 422.4 115.25 410.49 115.29 C406.89 115.3 403.29 115.3 399.69 115.31 C393.47 115.32 387.25 115.33 381.03 115.35 C371.17 115.37 361.31 115.38 351.46 115.39 C348.07 115.4 344.68 115.4 341.29 115.4 C340.44 115.41 339.6 115.41 338.73 115.41 C329.12 115.42 319.52 115.43 309.92 115.45 C309.04 115.45 308.17 115.45 307.26 115.45 C293.09 115.47 278.91 115.5 264.73 115.54 C250.11 115.57 235.49 115.59 220.86 115.6 C211.88 115.61 202.9 115.62 193.92 115.65 C187.75 115.67 181.58 115.68 175.4 115.68 C171.86 115.68 168.32 115.68 164.78 115.7 C147.48 115.78 130.6 114.88 113.43 112.72 C110.77 112.39 108.12 112.09 105.46 111.81 C102.11 111.42 99.1 110.85 95.87 109.92 C94.95 109.66 94.02 109.39 93.07 109.12 C90.22 108.25 87.39 107.3 84.56 106.36 C83.84 106.25 83.12 106.14 82.37 106.02 C78.65 105.14 75.36 103.52 71.94 101.86 C64.87 98.46 64.87 98.46 61.56 97.36 C61.56 96.7 61.56 96.04 61.56 95.36 C60.84 95.07 60.12 94.78 59.37 94.48 C58.07 93.96 58.07 93.96 51.56 91.36 C51.56 90.7 51.56 90.04 51.56 89.36 C50.94 89.21 50.32 89.07 49.69 88.92 C47.56 88.36 47.56 88.36 45.56 87.36 C45.56 86.7 45.56 86.04 45.56 85.36 C44.94 85.21 44.32 85.07 43.69 84.92 C41.56 84.36 41.56 84.36 39.56 83.36 C39.56 82.7 39.56 82.04 39.56 81.36 C38.24 81.03 36.92 80.7 35.56 80.36 C35.56 79.7 35.56 79.04 35.56 78.36 C34.9 78.36 34.24 78.36 33.56 78.36 C33.56 77.7 33.56 77.04 33.56 76.36 C33 76.13 32.45 75.91 31.87 75.67 C28.94 74 26.94 71.74 24.56 69.36 C22.25 68.05 22.25 68.05 20.56 67.36 C20.56 66.7 20.56 66.04 20.56 65.36 C19.9 65.03 19.24 64.7 18.56 64.36 C15.56 59.86 15.56 59.86 15.56 57.36 C14.95 57.11 14.34 56.86 13.71 56.61 C11.16 55.12 10.5 53.97 9.19 51.36 C7.4 47.94 5.53 44.64 3.5 41.36 C0.77 36.83 -1.43 32.24 -3.44 27.36 C-3.63 26.93 -3.63 26.93 -4.57 24.75 C-4.94 23.88 -5.31 23.01 -5.69 22.11 C-6.02 21.32 -6.36 20.53 -6.7 19.72 C-7.51 17.15 -7.57 15.04 -7.44 12.36 C-8.1 12.36 -8.76 12.36 -9.44 12.36 C-9.69 10.93 -9.91 9.49 -10.13 8.05 C-10.19 7.65 -10.19 7.65 -10.51 5.62 C-10.44 3.36 -10.44 3.36 -9.4 1.74 C-6.45 -0.34 -3.48 -0.04 0 0 Z " fill="url(#g)" transform="translate(442.44,138.64)"/><path d="M0 0 C3.57 2.28 7.23 4.32 10.93 6.38 C16.2 9.31 21.4 12.32 26.54 15.47 C30.21 17.62 33.99 19.55 37.78 21.48 C39.93 22.88 39.93 22.88 40.93 25.88 C42.09 26.2 43.24 26.54 44.43 26.88 C45.59 27.2 46.74 27.54 47.93 27.88 C48.26 28.86 48.59 29.86 48.93 30.88 C50.61 31.58 50.61 31.58 52.81 32.12 C58 33.67 62.08 36.34 66.55 39.35 C68.93 40.88 68.93 40.88 71.93 41.88 C73.65 43.41 73.65 43.41 75.43 45.38 C76.02 46 76.61 46.63 77.21 47.28 C81.4 53.59 82.38 60.37 82.32 67.8 C82.32 68.22 82.32 68.22 82.34 70.35 C82.35 73.11 82.34 75.86 82.33 78.62 C82.33 80.55 82.34 82.48 82.34 84.42 C82.35 88.46 82.34 92.5 82.32 96.55 C82.31 101.7 82.32 106.86 82.34 112.02 C82.35 116.01 82.34 120 82.33 123.99 C82.33 125.89 82.34 127.79 82.34 129.69 C82.41 153.87 82.41 153.87 76.95 160.16 C74.93 161.88 74.93 161.88 72.93 161.88 C72.93 162.53 72.93 163.19 72.93 163.88 C71.96 164.14 70.99 164.41 70 164.69 C69.49 164.88 69.49 164.88 66.93 165.88 C66.6 166.87 66.27 167.85 65.93 168.88 C63.86 170.38 63.86 170.38 61.25 171.88 C60.34 172.4 59.43 172.92 58.49 173.46 C55.68 175.02 52.81 176.44 49.93 177.88 C47.83 179.19 45.74 180.52 43.67 181.89 C41.93 182.88 41.93 182.88 39.93 182.88 C39.93 183.53 39.93 184.19 39.93 184.88 C39.13 185.08 38.32 185.29 37.5 185.5 C33.67 186.98 30.79 188.9 27.45 191.22 C23.87 193.57 20.11 195.52 16.32 197.48 C14.12 198.77 12.7 200.08 10.93 201.88 C10.27 201.88 9.61 201.88 8.93 201.88 C8.93 202.53 8.93 203.19 8.93 203.88 C1.5 207.16 1.5 207.16 -2.07 207.88 C-2.07 208.53 -2.07 209.19 -2.07 209.88 C-2.69 210.02 -3.3 210.16 -3.94 210.31 C-6.07 210.88 -6.07 210.88 -8.07 211.88 C-10.31 212.02 -12.56 212.1 -14.82 212.12 C-16.03 212.15 -17.24 212.18 -18.49 212.2 C-22.46 211.84 -24.61 210.83 -28.07 208.88 C-29.4 208.22 -30.74 207.58 -32.08 206.94 C-33.49 206.25 -34.91 205.56 -36.32 204.88 C-37.04 204.53 -37.76 204.19 -38.5 203.84 C-41.96 202.14 -43.89 201.15 -46.07 197.88 C-47.64 197.19 -49.21 196.52 -50.8 195.89 C-55.78 193.66 -60.39 190.68 -65.07 187.88 C-65.99 187.35 -66.92 186.82 -67.87 186.28 C-70.07 184.88 -70.07 184.88 -71.07 182.88 C-73.38 181.83 -75.71 180.83 -78.07 179.88 C-79.41 179.22 -80.74 178.56 -82.07 177.88 C-82.07 177.22 -82.07 176.56 -82.07 175.88 C-82.41 175.75 -82.41 175.75 -84.13 175.12 C-86.46 174.13 -88.47 173.09 -90.63 171.81 C-93.29 170.31 -95.12 169.35 -98.07 168.88 C-98.07 168.22 -98.07 167.56 -98.07 166.88 C-98.44 166.76 -98.44 166.76 -100.32 166.19 C-103.61 164.62 -105.04 162.88 -107.07 159.88 C-107.07 159.22 -107.07 158.56 -107.07 157.88 C-107.73 157.88 -108.39 157.88 -109.07 157.88 C-111.48 151.67 -112.51 146.29 -112.49 139.66 C-112.49 138.79 -112.5 137.91 -112.51 137.01 C-112.54 134.16 -112.54 131.3 -112.54 128.44 C-112.54 126.44 -112.55 124.43 -112.56 122.43 C-112.57 118.24 -112.57 114.05 -112.57 109.87 C-112.56 104.52 -112.59 99.17 -112.63 93.82 C-112.66 89.69 -112.66 85.56 -112.66 81.42 C-112.66 79.45 -112.67 77.48 -112.69 75.51 C-112.78 63.62 -112.58 54.85 -104.94 45.19 C-93.37 35.88 -93.37 35.88 -86.07 34.88 C-86.07 34.22 -86.07 33.55 -86.07 32.88 C-84.05 31.4 -84.05 31.4 -81.38 29.81 C-80.51 29.29 -79.64 28.76 -78.74 28.21 C-76.13 26.91 -73.91 26.44 -71.07 25.88 C-70.74 25.21 -70.41 24.55 -70.07 23.88 C-67.94 22.05 -66.12 20.9 -63.5 19.88 C-61.07 18.88 -61.07 18.88 -59.79 17.52 C-57.48 15.31 -54.96 14.09 -52.13 12.62 C-44.61 8.66 -37.14 4.59 -30.07 -0.12 C-29.41 -0.12 -28.75 -0.12 -28.07 -0.12 C-28.07 -0.79 -28.07 -1.45 -28.07 -2.12 C-17.98 -6.71 -9.08 -5.89 0 0 Z " fill="url(#g)" transform="translate(225.07,146.12)"/><path d="M0 0 C2.5 0.88 2.5 0.88 3.64 2.86 C4.8 6.93 4.77 10.71 4.75 14.92 C4.75 15.84 4.75 16.76 4.75 17.7 C4.76 20.79 4.75 23.89 4.74 26.98 C4.74 29.21 4.74 31.44 4.75 33.67 C4.75 39.82 4.74 45.96 4.73 52.11 C4.72 58.05 4.73 63.99 4.73 69.94 C4.73 82.09 4.72 94.25 4.71 106.41 C4.7 118.45 4.69 130.49 4.69 142.53 C4.69 143.28 4.69 144.02 4.69 144.8 C4.69 148.6 4.69 152.4 4.69 156.2 C4.68 183.12 4.67 210.04 4.65 236.97 C4.63 263.12 4.62 289.28 4.61 315.44 C4.61 316.24 4.61 317.05 4.61 317.88 C4.61 325.98 4.6 334.07 4.6 342.17 C4.6 358.66 4.59 375.15 4.58 391.64 C4.58 392.02 4.58 392.02 4.58 393.94 C4.57 444.58 4.53 495.23 4.5 545.88 C5.16 545.88 5.82 545.88 6.5 545.88 C6.5 545.22 6.5 544.55 6.5 543.88 C7.24 543.44 7.99 543.01 8.75 542.56 C12.77 540.1 15.01 537.34 16.5 532.88 C17.49 532.54 18.48 532.22 19.5 531.88 C19.83 531.22 20.16 530.55 20.5 529.88 C21.16 529.88 21.82 529.88 22.5 529.88 C22.76 529.3 23.01 528.73 23.27 528.13 C25.05 524.87 27.53 522.4 30.04 519.68 C31.5 517.88 31.5 517.88 31.5 515.88 C32.14 515.4 32.78 514.93 33.44 514.44 C35.5 512.88 35.5 512.88 36.5 509.88 C38.5 507.88 38.5 507.88 41.5 506.88 C42.19 504.81 42.19 504.81 42.5 502.88 C43.16 502.88 43.82 502.88 44.5 502.88 C44.56 502.34 44.62 501.8 44.69 501.25 C45.64 498.47 47.23 496.78 49.16 494.6 C51.48 491.62 52.91 488.29 54.5 484.88 C55.16 484.88 55.82 484.88 56.5 484.88 C56.75 484.17 56.99 483.47 57.25 482.75 C60.72 474.76 60.72 474.76 64.5 472.88 C64.64 472.09 64.79 471.31 64.94 470.5 C65.5 467.88 65.5 467.88 66.86 466.57 C69.01 464.35 70.05 461.98 71.38 459.19 C73.46 454.91 75.66 450.89 78.23 446.91 C80.87 442.69 83.15 438.26 85.5 433.88 C86.21 432.59 86.92 431.3 87.62 430.01 C88.35 428.67 89.08 427.34 89.81 426 C89.99 425.68 89.99 425.68 90.87 424.09 C92.72 420.67 93.81 417.68 94.5 413.88 C96.5 411.88 96.5 411.88 98.5 410.88 C98.97 409.22 99.44 407.56 99.88 405.89 C100.52 403.81 101.36 402.04 102.38 400.12 C104.55 396 106.02 391.72 107.47 387.29 C108.53 384.81 109.62 383.74 111.5 381.88 C111.86 380.55 112.19 379.21 112.5 377.88 C113.61 375.54 114.75 373.24 115.94 370.94 C117.97 366.98 119.91 363.04 121.5 358.88 C122 357.62 122.5 356.36 123.01 355.11 C123.27 354.44 123.54 353.78 123.81 353.1 C125.04 350.03 126.27 346.95 127.5 343.88 C128.16 343.88 128.82 343.88 129.5 343.88 C129.5 342.88 129.5 341.89 129.5 340.88 C130.16 340.88 130.82 340.88 131.5 340.88 C131.59 339.88 131.67 338.89 131.76 337.87 C132.4 333.44 134.22 329.91 136.31 326 C137.01 324.67 137.7 323.34 138.39 322.01 C138.75 321.33 139.1 320.66 139.46 319.96 C140.52 317.84 141.48 315.7 142.42 313.52 C144.68 308.36 147.29 303.41 149.94 298.44 C153.16 292.35 156.34 286.25 159.38 280.06 C161.19 276.52 163.35 273.22 165.5 269.88 C166.92 267.61 168.34 265.34 169.75 263.06 C170.44 261.96 171.12 260.86 171.83 259.73 C173.5 256.88 173.5 256.88 174.5 253.88 C175.16 253.88 175.82 253.88 176.5 253.88 C176.64 253.26 176.79 252.64 176.94 252 C177.5 249.88 177.5 249.88 178.5 247.88 C179.16 247.88 179.82 247.88 180.5 247.88 C180.73 247.22 180.96 246.56 181.2 245.88 C182.89 241.97 185.06 238.48 187.31 234.88 C187.53 234.53 187.53 234.53 188.6 232.76 C191.2 228.59 193.95 225.3 197.5 221.88 C198.89 220.05 200.25 218.19 201.56 216.31 C203.98 212.86 206.33 209.68 209.5 206.88 C210.16 206.88 210.82 206.88 211.5 206.88 C211.61 206.61 211.61 206.61 212.19 205.25 C213.96 202.05 216.04 199.58 218.5 196.88 C219.16 196.88 219.82 196.88 220.5 196.88 C220.5 196.22 220.5 195.56 220.5 194.88 C222.88 192.25 222.88 192.25 225.5 189.88 C226.16 189.88 226.82 189.88 227.5 189.88 C228.16 188.56 228.82 187.24 229.5 185.88 C230.16 185.88 230.82 185.88 231.5 185.88 C231.62 185.47 231.62 185.47 232.25 183.44 C233.5 180.88 233.5 180.88 235.62 180.06 C236.24 180 236.86 179.94 237.5 179.88 C237.5 179.22 237.5 178.56 237.5 177.88 C239.47 175.53 240.5 174.87 243.5 173.88 C244.16 172.88 244.82 171.9 245.5 170.88 C246.16 170.88 246.82 170.88 247.5 170.88 C247.83 169.88 248.16 168.9 248.5 167.88 C250.47 166.5 252.48 165.17 254.5 163.88 C255.57 162.97 256.64 162.06 257.69 161.12 C260.5 158.88 260.5 158.88 263.5 158.88 C263.61 158.58 263.61 158.58 264.19 157.06 C265.88 154.24 267.65 153.52 270.5 151.88 C271.64 151.15 272.78 150.42 273.91 149.68 C274.21 149.49 274.21 149.49 275.72 148.51 C276.95 147.71 278.18 146.91 279.42 146.1 C281.82 144.55 284.17 143.03 286.75 141.79 C288.5 140.88 288.5 140.88 290.01 139.34 C291.73 137.65 293.09 137.12 295.38 136.38 C298.74 135.27 301.47 133.72 304.5 131.88 C306.89 130.62 309.28 129.39 311.69 128.19 C312.32 127.87 312.94 127.55 313.59 127.22 C318.26 124.88 318.26 124.88 320.5 124.88 C320.5 124.22 320.5 123.56 320.5 122.88 C321.25 122.67 322.01 122.46 322.78 122.25 C329.3 120.36 335.35 118.14 341.5 115.31 C347.51 112.56 353.29 110.79 359.8 109.49 C362.5 108.88 362.5 108.88 365.75 107.25 C368.99 105.63 371.67 105.39 375.25 105.18 C377.5 104.88 377.5 104.88 379.62 103.97 C418.23 89.25 468.32 95.45 507.36 104.95 C508.03 105.11 508.71 105.28 509.4 105.44 C512.58 106.24 514.73 107.03 517.5 108.88 C519.45 109.37 521.4 109.86 523.35 110.32 C526.85 111.22 530.15 112.55 533.5 113.88 C534.67 114.32 535.85 114.77 537.06 115.23 C554.95 122.09 554.95 122.09 557.7 127.02 C557.83 127.33 557.83 127.33 558.5 128.88 C557.84 129.53 557.18 130.19 556.5 130.88 C554.26 130.88 552.02 130.87 549.77 130.83 C531.95 131.08 514.33 135.45 497.06 139.5 C496.18 139.71 495.3 139.91 494.39 140.12 C490.27 141.11 486.4 142.19 482.5 143.88 C481.39 144.18 480.27 144.49 479.12 144.81 C476.09 145.7 473.37 146.81 470.49 148.1 C468.17 149 465.85 149.63 463.44 150.25 C458.86 151.45 454.39 152.87 449.94 154.44 C448.76 154.85 447.58 155.27 446.37 155.69 C443.5 156.88 443.5 156.88 441.5 158.88 C439.18 159.59 436.85 160.27 434.5 160.88 C434.5 161.53 434.5 162.19 434.5 162.88 C434.2 162.97 434.2 162.97 432.71 163.43 C428.25 164.84 424.5 166.41 420.5 168.88 C419.51 168.88 418.52 168.88 417.5 168.88 C417.5 169.53 417.5 170.19 417.5 170.88 C417 171.07 417 171.07 414.5 172.06 C408.67 174.56 403.53 178.06 398.5 181.88 C394.99 184.25 393.87 184.88 389.5 184.88 C389.5 185.53 389.5 186.19 389.5 186.88 C388.15 187.81 386.79 188.73 385.4 189.61 C382.41 191.6 379.63 193.85 376.8 196.07 C374 198.27 371.14 200.4 368.29 202.52 C366.72 203.71 365.2 204.94 363.69 206.19 C361.5 207.88 361.5 207.88 358.5 208.88 C358.83 209.53 359.16 210.19 359.5 210.88 C359.04 211 359.04 211 356.69 211.62 C353.28 212.96 352.47 213.93 350.5 216.88 C349.84 216.88 349.18 216.88 348.5 216.88 C348.5 217.53 348.5 218.19 348.5 218.88 C346.71 220.43 346.71 220.43 344.31 222.19 C339.97 225.47 336.04 228.76 332.81 233.19 C332.38 233.74 331.95 234.3 331.5 234.88 C330.84 234.88 330.18 234.88 329.5 234.88 C329.5 235.53 329.5 236.19 329.5 236.88 C327.83 238.54 326.17 240.21 324.5 241.88 C324.17 242.87 323.84 243.85 323.5 244.88 C322.9 245.14 322.3 245.41 321.69 245.69 C318.59 247.37 317.4 249.96 315.5 252.88 C314.84 252.88 314.18 252.88 313.5 252.88 C313.46 253.6 313.42 254.32 313.38 255.06 C312.36 258.33 310.92 259.33 308.26 261.36 C304.15 264.9 300.38 269.51 298.48 274.59 C298.32 274.97 298.32 274.97 297.5 276.88 C296.51 277.2 295.52 277.54 294.5 277.88 C293.79 279.19 293.14 280.53 292.5 281.88 C291.72 282.99 290.93 284.09 290.12 285.19 C287.19 289.23 284.58 293.42 282.56 298 C281.5 299.88 281.5 299.88 279.12 302.19 C276.74 304.63 275.19 306.9 273.58 309.88 C272.36 312.12 271.07 314.31 269.75 316.5 C269.24 317.34 268.74 318.18 268.22 319.05 C266.96 321.12 265.69 323.18 264.41 325.23 C264.05 325.8 263.69 326.38 263.32 326.97 C262.3 328.61 261.27 330.25 260.23 331.89 C258.71 334.52 257.53 337.03 256.5 339.88 C255.84 339.88 255.18 339.88 254.5 339.88 C254.23 340.58 253.96 341.28 253.69 342 C252.43 345.05 251 347.94 249.5 350.88 C249.16 351.56 248.82 352.25 248.48 352.95 C245.57 358.85 242.5 364.66 239.35 370.43 C237.16 374.5 235.31 378.62 233.5 382.88 C232.29 385.39 231.02 387.88 229.75 390.38 C226.97 395.88 224.25 401.42 221.62 407 C221.07 408.18 220.52 409.36 219.95 410.57 C218.5 413.88 218.5 413.88 217.43 417.24 C216.5 419.88 216.5 419.88 214.5 420.88 C213.79 423.1 213.79 423.1 213.12 425.94 C211.81 431.05 210.13 435.3 207.5 439.88 C206.84 440.2 206.18 440.54 205.5 440.88 C205.52 441.25 205.52 441.25 205.62 443.12 C205.49 446.07 204.86 447.32 203.5 449.88 C202.88 451.18 202.27 452.5 201.66 453.81 C201.32 454.54 200.98 455.27 200.63 456.03 C199.92 457.55 199.21 459.07 198.51 460.59 C196.69 464.49 194.77 468.21 192.5 471.88 C191.71 473.39 190.94 474.91 190.19 476.44 C189.97 476.87 189.97 476.87 188.89 479.07 C188.43 479.99 187.97 480.92 187.5 481.88 C186.5 483.88 185.5 485.88 184.5 487.88 C184 488.87 183.5 489.87 182.99 490.9 C182.01 492.86 181.03 494.81 180.04 496.75 C179.6 497.64 179.15 498.53 178.69 499.44 C178.49 499.83 178.49 499.83 177.48 501.82 C176.5 503.88 176.5 503.88 175.5 506.88 C174.84 507.2 174.18 507.54 173.5 507.88 C172.61 509.68 171.78 511.52 171 513.38 C168.72 518.76 168.72 518.76 166.5 519.88 C166.19 520.66 165.88 521.44 165.56 522.25 C164.46 524.97 163.52 525.85 161.5 527.88 C159.26 531.41 157.31 535.11 155.5 538.88 C154.84 538.88 154.18 538.88 153.5 538.88 C153.17 540.52 152.84 542.17 152.5 543.88 C151.51 543.88 150.52 543.88 149.5 543.88 C149.38 544.45 149.25 545.03 149.12 545.62 C148.17 549.05 147.02 551.36 144.5 553.88 C144 554.7 143.51 555.52 143 556.38 C141.5 558.88 141.5 558.88 139.5 560.88 C139 561.58 138.51 562.28 138 563 C137.75 563.31 137.75 563.31 136.5 564.88 C135.84 564.88 135.18 564.88 134.5 564.88 C134.5 565.53 134.5 566.2 134.5 566.88 C133.84 566.88 133.18 566.88 132.5 566.88 C132.5 567.87 132.5 568.86 132.5 569.88 C131.84 569.88 131.18 569.88 130.5 569.88 C130.27 570.6 130.05 571.32 129.81 572.06 C127.79 576.4 124.59 579.02 120.88 581.94 C118.5 583.88 118.5 583.88 117.12 585.75 C115.13 588.36 112.79 590.26 110.27 592.36 C108.74 593.67 107.3 595.08 105.88 596.5 C103.54 598.83 101.09 600.83 98.5 602.88 C98.05 603.34 97.59 603.8 97.12 604.27 C92.49 608.84 87.09 612.59 81.5 615.88 C81.09 616.33 80.67 616.79 80.25 617.26 C77.89 619.44 75.33 620.56 72.44 621.94 C66.71 624.67 66.71 624.67 64.5 626.88 C62.49 627.95 60.44 628.9 58.38 629.88 C56.5 630.88 56.5 630.88 54.5 632.88 C52.42 633.76 50.31 634.59 48.19 635.38 C47.06 635.8 45.93 636.22 44.76 636.66 C43.69 637.06 42.61 637.46 41.5 637.88 C41.05 638.07 41.05 638.07 38.77 639.03 C36.5 639.88 36.5 639.88 33.5 639.88 C33.5 640.53 33.5 641.2 33.5 641.88 C32.72 642.16 31.93 642.45 31.12 642.75 C28.5 643.88 28.5 643.88 26.5 645.88 C26.17 645.54 25.84 645.22 25.5 644.88 C23.46 645.5 21.42 646.12 19.38 646.75 C18.24 647.1 17.1 647.45 15.93 647.8 C13.75 648.48 11.59 649.19 9.43 649.94 C2.53 652.14 -4.83 652.88 -12.02 653.58 C-14.5 653.88 -14.5 653.88 -16.95 654.35 C-27.3 656.32 -37.62 656.14 -48.12 656.08 C-51.32 656.06 -54.52 656.06 -57.72 656.06 C-59.78 656.06 -61.84 656.05 -63.89 656.04 C-64.84 656.04 -65.79 656.04 -66.76 656.04 C-72.1 656 -77.22 655.65 -82.5 654.88 C-83.24 654.78 -83.98 654.68 -84.75 654.58 C-85.04 654.54 -85.04 654.54 -86.5 654.34 C-87.16 654.25 -87.82 654.17 -88.5 654.08 C-89.83 653.9 -91.17 653.72 -92.5 653.54 C-95.96 653.09 -99.26 652.85 -102.75 652.94 C-106.29 652.88 -107.58 652.59 -110.5 650.88 C-112.55 650.67 -114.61 650.47 -116.66 650.29 C-121.56 649.57 -126.28 648.15 -131.05 646.81 C-134.73 645.81 -138.39 645.07 -142.14 644.41 C-143 644.25 -143.86 644.1 -144.75 643.94 C-145.62 643.78 -146.49 643.63 -147.39 643.47 C-148.09 643.28 -148.78 643.08 -149.5 642.88 C-149.83 642.22 -150.16 641.55 -150.5 640.88 C-151.16 641.21 -151.82 641.53 -152.5 641.88 C-152.5 641.22 -152.5 640.55 -152.5 639.88 C-153.3 639.75 -154.09 639.63 -154.91 639.51 C-160.3 638.66 -165.37 637.77 -170.5 635.88 C-172.1 635.39 -173.71 634.91 -175.31 634.44 C-177.04 633.92 -178.77 633.4 -180.5 632.88 C-180.92 632.75 -180.92 632.75 -183.07 632.12 C-183.87 631.87 -184.68 631.63 -185.5 631.38 C-185.86 631.27 -185.86 631.27 -187.69 630.72 C-189.5 629.88 -189.5 629.88 -191.5 626.88 C-191.17 626.54 -190.84 626.22 -190.5 625.88 C-190.4 623.17 -190.38 620.49 -190.39 617.78 C-190.39 616.92 -190.39 616.05 -190.39 615.16 C-190.39 612.23 -190.4 609.31 -190.41 606.38 C-190.41 604.27 -190.41 602.16 -190.41 600.06 C-190.42 595.46 -190.42 590.86 -190.43 586.26 C-190.45 578.78 -190.46 571.29 -190.47 563.81 C-190.48 553.66 -190.5 543.5 -190.51 533.35 C-190.54 516.21 -190.56 499.07 -190.57 481.93 C-190.58 478.29 -190.58 474.64 -190.58 471 C-190.58 470.27 -190.59 469.55 -190.59 468.8 C-190.59 467.33 -190.59 465.85 -190.59 464.38 C-190.59 462.9 -190.59 461.43 -190.59 459.95 C-190.61 442.51 -190.63 425.08 -190.64 407.64 C-190.65 406.88 -190.65 406.12 -190.65 405.33 C-190.67 380.57 -190.71 355.82 -190.75 331.06 C-190.79 305.62 -190.82 280.19 -190.83 254.75 C-190.84 251.16 -190.84 247.57 -190.84 243.99 C-190.84 243.28 -190.84 242.57 -190.84 241.84 C-190.85 230.46 -190.87 219.07 -190.9 207.68 C-190.92 196.24 -190.94 184.8 -190.93 173.36 C-190.93 167.16 -190.94 160.96 -190.96 154.76 C-190.98 149.09 -190.99 143.42 -190.98 137.75 C-190.97 135.69 -190.98 133.63 -190.99 131.57 C-191.01 128.79 -191 126.01 -190.99 123.22 C-191 122.41 -191.01 121.6 -191.02 120.76 C-190.96 115.36 -190.96 115.36 -188.59 112.85 C-186.5 111.88 -186.5 111.88 -184.5 111.88 C-184.5 111.22 -184.5 110.56 -184.5 109.88 C-183.72 109.5 -182.93 109.13 -182.12 108.75 C-176.36 105.87 -170.86 102.45 -165.5 98.88 C-159.08 94.88 -159.08 94.88 -155.5 94.88 C-155.5 94.22 -155.5 93.56 -155.5 92.88 C-151.12 89.88 -151.12 89.88 -148.5 89.88 C-148.5 89.22 -148.5 88.56 -148.5 87.88 C-145.53 86.89 -142.56 85.89 -139.5 84.88 C-139.5 84.22 -139.5 83.56 -139.5 82.88 C-138.74 82.48 -137.98 82.08 -137.2 81.67 C-136.21 81.14 -135.21 80.61 -134.19 80.06 C-133.2 79.54 -132.22 79.02 -131.2 78.48 C-128.5 76.88 -128.5 76.88 -127.01 75.36 C-124.85 73.24 -122.41 72.19 -119.69 70.88 C-118.67 70.38 -117.65 69.89 -116.61 69.38 C-114.51 68.36 -112.41 67.36 -110.3 66.38 C-107.77 65.02 -106.45 63.88 -104.5 61.88 C-102.82 60.89 -101.11 59.96 -99.38 59.06 C-94.85 56.66 -90.64 54.04 -86.47 51.07 C-84.47 49.86 -82.79 49.31 -80.5 48.88 C-80.5 48.22 -80.5 47.55 -80.5 46.88 C-79.78 46.61 -79.06 46.34 -78.31 46.06 C-75.5 44.88 -75.5 44.88 -72.81 43.25 C-70.5 41.88 -70.5 41.88 -68.5 41.88 C-68.5 41.22 -68.5 40.55 -68.5 39.88 C-65.13 37.44 -63.77 36.88 -59.5 36.88 C-59.17 35.88 -58.84 34.9 -58.5 33.88 C-56.61 32.59 -56.61 32.59 -54.25 31.38 C-51.81 30.1 -49.41 28.82 -47.05 27.41 C-43.46 25.25 -39.74 23.33 -36.02 21.38 C-33.5 19.88 -33.5 19.88 -31.96 18.29 C-30.07 16.46 -28.32 15.95 -25.81 15.19 C-25 14.94 -24.2 14.68 -23.36 14.43 C-22.75 14.24 -22.13 14.06 -21.5 13.88 C-21.5 13.21 -21.5 12.55 -21.5 11.88 C-20.91 11.55 -20.32 11.22 -19.71 10.89 C-16.29 9 -12.89 7.11 -9.56 5.06 C-7.5 3.88 -7.5 3.88 -5.5 3.88 C-5.17 2.88 -4.84 1.9 -4.5 0.88 C-2.5 -0.12 -2.5 -0.12 0 0 Z " fill="url(#g)" transform="translate(303.5,392.12)"/></svg> 